<svg xmlns="http://www.w3.org/2000/svg" viewBox="0 0 1000 520" width="1000" height="520" font-family="sans-serif">
<rect width="1000" height="520" fill="#ffffff"/>
<rect x="70" y="46" width="680" height="410" fill="#eef2f7"/>
<line x1="70" y1="46" x2="70" y2="456" stroke="#c7d2de" stroke-width="1"/>
<text x="410" y="34" font-size="12" fill="#44546a" text-anchor="middle">Lean 4.34.0</text>
<line x1="70" y1="456" x2="750" y2="456" stroke="#333" stroke-width="1"/>
<line x1="70" y1="46" x2="70" y2="456" stroke="#333" stroke-width="1"/>
<text x="60" y="50" font-size="11" fill="#333" text-anchor="end">207</text>
<text x="60" y="456" font-size="11" fill="#333" text-anchor="end">0</text>
<text x="20" y="251" font-size="12" fill="#333" transform="rotate(-90 20 251)" text-anchor="middle">size</text>
<text x="70" y="474" font-size="10" fill="#333" text-anchor="middle" transform="rotate(-35 70 474)">2026-09-16</text>
<text x="167" y="474" font-size="10" fill="#333" text-anchor="middle" transform="rotate(-35 167 474)">2026-09-17</text>
<text x="264" y="474" font-size="10" fill="#333" text-anchor="middle" transform="rotate(-35 264 474)">2026-09-18</text>
<text x="361" y="474" font-size="10" fill="#333" text-anchor="middle" transform="rotate(-35 361 474)">2026-09-19</text>
<text x="458" y="474" font-size="10" fill="#333" text-anchor="middle" transform="rotate(-35 458 474)">2026-09-20</text>
<text x="555" y="474" font-size="10" fill="#333" text-anchor="middle" transform="rotate(-35 555 474)">2026-09-21</text>
<text x="652" y="474" font-size="10" fill="#333" text-anchor="middle" transform="rotate(-35 652 474)">2026-09-22</text>
<text x="749" y="474" font-size="10" fill="#333" text-anchor="middle" transform="rotate(-35 749 474)">2026-09-23</text>
<polyline fill="none" stroke="#1f77b4" stroke-width="2" points="70,389 167,389 264,389 361,389 458,389 555,389 652,389 749,389"/>
<circle cx="70" cy="389" r="3" fill="#1f77b4"/>
<circle cx="167" cy="389" r="3" fill="#1f77b4"/>
<circle cx="264" cy="389" r="3" fill="#1f77b4"/>
<circle cx="361" cy="389" r="3" fill="#1f77b4"/>
<circle cx="458" cy="389" r="3" fill="#1f77b4"/>
<circle cx="555" cy="389" r="3" fill="#1f77b4"/>
<circle cx="652" cy="389" r="3" fill="#1f77b4"/>
<circle cx="749" cy="389" r="3" fill="#1f77b4"/>
<text x="764" y="60" font-size="11" fill="#1f77b4">Init.Nat.add_comm</text>
<polyline fill="none" stroke="#d62728" stroke-width="2" points="70,298 167,298 264,298 361,298 458,298 555,298 652,298 749,298"/>
<circle cx="70" cy="298" r="3" fill="#d62728"/>
<circle cx="167" cy="298" r="3" fill="#d62728"/>
<circle cx="264" cy="298" r="3" fill="#d62728"/>
<circle cx="361" cy="298" r="3" fill="#d62728"/>
<circle cx="458" cy="298" r="3" fill="#d62728"/>
<circle cx="555" cy="298" r="3" fill="#d62728"/>
<circle cx="652" cy="298" r="3" fill="#d62728"/>
<circle cx="749" cy="298" r="3" fill="#d62728"/>
<text x="764" y="78" font-size="11" fill="#d62728">Init.Nat.le_antisymm</text>
<polyline fill="none" stroke="#2ca02c" stroke-width="2" points="70,342 167,342 264,342 361,342 458,342 555,342 652,342 749,342"/>
<circle cx="70" cy="342" r="3" fill="#2ca02c"/>
<circle cx="167" cy="342" r="3" fill="#2ca02c"/>
<circle cx="264" cy="342" r="3" fill="#2ca02c"/>
<circle cx="361" cy="342" r="3" fill="#2ca02c"/>
<circle cx="458" cy="342" r="3" fill="#2ca02c"/>
<circle cx="555" cy="342" r="3" fill="#2ca02c"/>
<circle cx="652" cy="342" r="3" fill="#2ca02c"/>
<circle cx="749" cy="342" r="3" fill="#2ca02c"/>
<text x="764" y="96" font-size="11" fill="#2ca02c">Init.Nat.div_add_mod</text>
<polyline fill="none" stroke="#9467bd" stroke-width="2" points="70,377 167,377 264,377 361,377 458,377 555,377 652,377 749,377"/>
<circle cx="70" cy="377" r="3" fill="#9467bd"/>
<circle cx="167" cy="377" r="3" fill="#9467bd"/>
<circle cx="264" cy="377" r="3" fill="#9467bd"/>
<circle cx="361" cy="377" r="3" fill="#9467bd"/>
<circle cx="458" cy="377" r="3" fill="#9467bd"/>
<circle cx="555" cy="377" r="3" fill="#9467bd"/>
<circle cx="652" cy="377" r="3" fill="#9467bd"/>
<circle cx="749" cy="377" r="3" fill="#9467bd"/>
<text x="764" y="114" font-size="11" fill="#9467bd">Init.Nat.sub_one_lt</text>
<polyline fill="none" stroke="#ff7f0e" stroke-width="2" points="70,46 167,46 264,46 361,46 458,46 555,46 652,46 749,46"/>
<circle cx="70" cy="46" r="3" fill="#ff7f0e"/>
<circle cx="167" cy="46" r="3" fill="#ff7f0e"/>
<circle cx="264" cy="46" r="3" fill="#ff7f0e"/>
<circle cx="361" cy="46" r="3" fill="#ff7f0e"/>
<circle cx="458" cy="46" r="3" fill="#ff7f0e"/>
<circle cx="555" cy="46" r="3" fill="#ff7f0e"/>
<circle cx="652" cy="46" r="3" fill="#ff7f0e"/>
<circle cx="749" cy="46" r="3" fill="#ff7f0e"/>
<text x="764" y="132" font-size="11" fill="#ff7f0e">Init.List.length_append</text>
<polyline fill="none" stroke="#17becf" stroke-width="2" points="70,324 167,324 264,324 361,324 458,324 555,324 652,324 749,324"/>
<circle cx="70" cy="324" r="3" fill="#17becf"/>
<circle cx="167" cy="324" r="3" fill="#17becf"/>
<circle cx="264" cy="324" r="3" fill="#17becf"/>
<circle cx="361" cy="324" r="3" fill="#17becf"/>
<circle cx="458" cy="324" r="3" fill="#17becf"/>
<circle cx="555" cy="324" r="3" fill="#17becf"/>
<circle cx="652" cy="324" r="3" fill="#17becf"/>
<circle cx="749" cy="324" r="3" fill="#17becf"/>
<text x="764" y="150" font-size="11" fill="#17becf">Init.List.reverse_reverse</text>
<polyline fill="none" stroke="#8c564b" stroke-width="2" points="70,357 167,357 264,357 361,357 458,357 555,357 652,357 749,357"/>
<circle cx="70" cy="357" r="3" fill="#8c564b"/>
<circle cx="167" cy="357" r="3" fill="#8c564b"/>
<circle cx="264" cy="357" r="3" fill="#8c564b"/>
<circle cx="361" cy="357" r="3" fill="#8c564b"/>
<circle cx="458" cy="357" r="3" fill="#8c564b"/>
<circle cx="555" cy="357" r="3" fill="#8c564b"/>
<circle cx="652" cy="357" r="3" fill="#8c564b"/>
<circle cx="749" cy="357" r="3" fill="#8c564b"/>
<text x="764" y="168" font-size="11" fill="#8c564b">Init.Array.size_push</text>
<polyline fill="none" stroke="#e377c2" stroke-width="2" points="70,375 167,375 264,375 361,375 458,375 555,375 652,375 749,375"/>
<circle cx="70" cy="375" r="3" fill="#e377c2"/>
<circle cx="167" cy="375" r="3" fill="#e377c2"/>
<circle cx="264" cy="375" r="3" fill="#e377c2"/>
<circle cx="361" cy="375" r="3" fill="#e377c2"/>
<circle cx="458" cy="375" r="3" fill="#e377c2"/>
<circle cx="555" cy="375" r="3" fill="#e377c2"/>
<circle cx="652" cy="375" r="3" fill="#e377c2"/>
<circle cx="749" cy="375" r="3" fill="#e377c2"/>
<text x="764" y="186" font-size="11" fill="#e377c2">Init.Nat.strongRecOn</text>
<polyline fill="none" stroke="#7f7f7f" stroke-width="2" points="70,403 167,403 264,403 361,403 458,403 555,403 652,403 749,403"/>
<circle cx="70" cy="403" r="3" fill="#7f7f7f"/>
<circle cx="167" cy="403" r="3" fill="#7f7f7f"/>
<circle cx="264" cy="403" r="3" fill="#7f7f7f"/>
<circle cx="361" cy="403" r="3" fill="#7f7f7f"/>
<circle cx="458" cy="403" r="3" fill="#7f7f7f"/>
<circle cx="555" cy="403" r="3" fill="#7f7f7f"/>
<circle cx="652" cy="403" r="3" fill="#7f7f7f"/>
<circle cx="749" cy="403" r="3" fill="#7f7f7f"/>
<text x="764" y="204" font-size="11" fill="#7f7f7f">Fixtures.Fixtures.addComm</text>
<polyline fill="none" stroke="#bcbd22" stroke-width="2" points="70,249 167,249 264,249 361,249 458,249 555,249 652,249 749,249"/>
<circle cx="70" cy="249" r="3" fill="#bcbd22"/>
<circle cx="167" cy="249" r="3" fill="#bcbd22"/>
<circle cx="264" cy="249" r="3" fill="#bcbd22"/>
<circle cx="361" cy="249" r="3" fill="#bcbd22"/>
<circle cx="458" cy="249" r="3" fill="#bcbd22"/>
<circle cx="555" cy="249" r="3" fill="#bcbd22"/>
<circle cx="652" cy="249" r="3" fill="#bcbd22"/>
<circle cx="749" cy="249" r="3" fill="#bcbd22"/>
<text x="764" y="222" font-size="11" fill="#bcbd22">Fixtures.Fixtures.branchy</text>
<polyline fill="none" stroke="#1f77b4" stroke-width="2" points="70,318 167,318 264,318 361,318 458,318 555,318 652,318 749,318"/>
<circle cx="70" cy="318" r="3" fill="#1f77b4"/>
<circle cx="167" cy="318" r="3" fill="#1f77b4"/>
<circle cx="264" cy="318" r="3" fill="#1f77b4"/>
<circle cx="361" cy="318" r="3" fill="#1f77b4"/>
<circle cx="458" cy="318" r="3" fill="#1f77b4"/>
<circle cx="555" cy="318" r="3" fill="#1f77b4"/>
<circle cx="652" cy="318" r="3" fill="#1f77b4"/>
<circle cx="749" cy="318" r="3" fill="#1f77b4"/>
<text x="764" y="240" font-size="11" fill="#1f77b4">Fixtures.Fixtures.decBig</text>
<polyline fill="none" stroke="#d62728" stroke-width="2" points="70,344 167,344 264,344 361,344 458,344 555,344 652,344 749,344"/>
<circle cx="70" cy="344" r="3" fill="#d62728"/>
<circle cx="167" cy="344" r="3" fill="#d62728"/>
<circle cx="264" cy="344" r="3" fill="#d62728"/>
<circle cx="361" cy="344" r="3" fill="#d62728"/>
<circle cx="458" cy="344" r="3" fill="#d62728"/>
<circle cx="555" cy="344" r="3" fill="#d62728"/>
<circle cx="652" cy="344" r="3" fill="#d62728"/>
<circle cx="749" cy="344" r="3" fill="#d62728"/>
<text x="764" y="258" font-size="11" fill="#d62728">Fixtures.Fixtures.natively</text>
</svg>
